<svg width="48" height="48" viewBox="0 0 48 48" fill="none" xmlns="http://www.w3.org/2000/svg">
<rect width="48" height="48" rx="24" fill="#D8B4F8"/>
<path d="M16.52 36C16.2853 36 16.104 35.936 15.976 35.808C15.848 35.6587 15.784 35.4773 15.784 35.264V14.368C15.784 14.1333 15.848 13.952 15.976 13.824C16.104 13.6747 16.2853 13.6 16.52 13.6H24.648C26.2267 13.6 27.592 13.856 28.744 14.368C29.9173 14.88 30.824 15.648 31.464 16.672C32.104 17.6747 32.424 18.9333 32.424 20.448C32.424 21.9627 32.104 23.2213 31.464 24.224C30.824 25.2267 29.9173 25.984 28.744 26.496C27.592 27.008 26.2267 27.264 24.648 27.264H18.984V35.264C18.984 35.4773 18.9093 35.6587 18.76 35.808C18.632 35.936 18.4507 36 18.216 36H16.52ZM18.952 24.576H24.488C26.0667 24.576 27.2507 24.224 28.04 23.52C28.8293 22.816 29.224 21.792 29.224 20.448C29.224 19.1253 28.84 18.1013 28.072 17.376C27.304 16.6507 26.1093 16.288 24.488 16.288H18.952V24.576Z" fill="#FFFEF9"/>
</svg>
