<svg width="22" height="22" viewBox="0 0 22 22" fill="none" xmlns="http://www.w3.org/2000/svg">
<path d="M3.20002 18.8002C3.54438 18.4145 5.85787 16.5975 7.00778 15.7018C7.42658 15.3756 7.9403 15.2002 8.47116 15.2002C9.75482 15.2002 12.2284 15.2002 13.5183 15.2002C14.0553 15.2002 14.5742 15.3831 15.0066 15.7016C16.4914 16.7954 17.8833 17.6105 19.4 18.8002M5.00002 20.5999H17C18.9882 20.5999 20.6 18.9881 20.6 16.9999V4.9999C20.6 3.01168 18.9882 1.3999 17 1.3999H5.00002C3.0118 1.3999 1.40002 3.01168 1.40002 4.9999V16.9999C1.40002 18.9881 3.0118 20.5999 5.00002 20.5999ZM14.4386 8.27194C14.4386 6.44043 12.8924 4.94398 11 4.94398C9.10765 4.94398 7.56147 6.44043 7.56147 8.27194C7.56147 10.1035 9.10765 11.5999 11 11.5999C12.8924 11.5999 14.4386 10.1035 14.4386 8.27194Z" stroke="black" stroke-width="2"/>
</svg>
